<?xml version="1.0" encoding="iso-8859-1"?>
<!-- Generator: Adobe Illustrator 19.0.0, SVG Export Plug-In . SVG Version: 6.00 Build 0)  -->
<svg version="1.1" id="Capa_1" xmlns="http://www.w3.org/2000/svg" xmlns:xlink="http://www.w3.org/1999/xlink" x="0px" y="0px"
	 viewBox="0 0 384 384" style="enable-background:new 0 0 384 384;" xml:space="preserve">
<g>
	<g>
		<path d="M378.88,41.216H332.8V11.008c0-3.072-2.048-5.12-5.12-5.12h-27.136c-3.072,0-5.12,2.048-5.12,5.12v30.208H89.6V11.008
			c0-3.072-2.048-5.12-5.12-5.12H57.344c-3.072,0-5.12,2.048-5.12,5.12v30.208H5.12c-3.072,0-5.12,2.048-5.12,5.12v326.656
			c0,3.072,2.048,5.12,5.12,5.12h373.76c3.072,0,5.12-2.048,5.12-5.12V46.336C384,43.776,381.952,41.216,378.88,41.216z
			 M305.664,16.128h16.896V65.28h-16.896V16.128z M62.976,16.128h16.896V65.28H62.976V16.128z M75.264,368.384H10.752v-50.688
			h64.512V368.384z M75.264,307.456H10.752v-50.688h64.512V307.456z M75.264,246.016H10.752v-50.688h64.512V246.016z
			 M75.264,185.088H10.752v-49.664h64.512V185.088z M150.016,368.384H85.504v-50.688h64.512V368.384z M150.016,307.456H85.504
			v-50.688h64.512V307.456z M150.016,246.016H85.504v-50.688h64.512V246.016z M150.016,185.088H85.504v-49.664h64.512V185.088z
			 M224.768,368.384h-64.512v-50.688h64.512V368.384z M224.768,307.456h-64.512v-50.688h64.512V307.456z M224.768,246.016h-64.512
			v-50.688h64.512V246.016z M224.768,185.088h-64.512v-49.664h64.512V185.088z M299.52,368.384h-0.512h-64v-50.688h64.512V368.384z
			 M299.52,307.456h-0.512h-64v-50.688h64.512V307.456z M299.52,246.016h-0.512h-64v-50.688h64.512V246.016z M299.52,185.088h-0.512
			h-64v-49.664h64.512V185.088z M373.76,368.384h-64.512v-50.688h64.512V368.384z M373.76,307.456h-64.512v-50.688h64.512V307.456z
			 M373.76,246.016h-64.512v-50.688h64.512V246.016z M373.76,185.088h-64.512v-49.664h64.512V185.088z M373.76,125.184H10.752
			v-12.288H373.76V125.184z M373.76,102.656H10.752v-51.2h41.984V70.4c0,3.072,2.048,5.12,5.12,5.12h27.136
			c3.072,0,5.12-2.048,5.12-5.12V51.456h205.824V70.4c0,3.072,2.048,5.12,5.12,5.12h26.624c3.072,0,5.12-2.048,5.12-5.12V51.456
			h40.96V102.656z"/>
	</g>
</g>
<g>
</g>
<g>
</g>
<g>
</g>
<g>
</g>
<g>
</g>
<g>
</g>
<g>
</g>
<g>
</g>
<g>
</g>
<g>
</g>
<g>
</g>
<g>
</g>
<g>
</g>
<g>
</g>
<g>
</g>
</svg>
