<svg height="483pt" viewBox="0 -19 483.65692 483" width="483pt" xmlns="http://www.w3.org/2000/svg"><path d="m6.003906 286.59375h58.035156l.730469 63.234375c.113281 8.351563 3.644531 16.292969 9.773438 21.96875 6.128906 5.675781 14.316406 8.589844 22.65625 8.0625l30.441406-1.886719c10.078125-.574218 18.78125 6.976563 19.636719 17.035156l3.542968 44.1875c.261719 3.09375 2.875 5.457032 5.980469 5.402344h.082031l207.867188-2.613281c3.191406-.015625 5.800781-2.546875 5.917969-5.734375l5.640625-161.636719c9.007812-2.757812 17.667968-6.558593 25.796875-11.320312l19.324219 13.59375c2.382812 1.679687 5.628906 1.398437 7.691406-.660157l26.035156-26.042968c2.066406-2.066406 2.34375-5.324219.65625-7.710938l-13.890625-19.628906c5.800781-9.808594 10.140625-20.410156 12.886719-31.472656l23.660156-3.914063c2.929688-.464843 5.109375-2.953125 5.1875-5.917969v-36.601562c-.078125-2.957031-2.25-5.445312-5.171875-5.914062l-23.238281-3.910157c-2.804688-11.046875-7.171875-21.636719-12.964844-31.453125l13.566406-19.320312c1.671875-2.386719 1.386719-5.632813-.679687-7.695313l-26.046875-26.039062c-2.078125-2.082031-5.359375-2.347657-7.746094-.632813l-19.273438 13.851563c-9.804687-5.792969-20.398437-10.128907-31.453124-12.871094l-3.910157-23.253906c-.476562-2.910157-2.96875-5.058594-5.914062-5.105469h-36.601563c-2.945312.046875-5.4375 2.199219-5.914062 5.105469l-.457032 2.753906c-25.21875-18.949219-55.769531-29.476563-87.3125-30.085937-42.492187-.96875-85.527343 15.726562-117.433593 45.535156-31.65625 29.566406-49.257813 68.160156-49.671875 108.800781l-62.777344 122.839844c-.949219 1.914062-.863281 4.183593.226562 6.019531 1.074219 1.824219 3.007813 2.96875 5.121094 3.03125zm349.753906-252 3.730469 22.199219c.40625 2.445312 2.257813 4.394531 4.679688 4.925781 12.414062 2.625 24.25 7.480469 34.933593 14.328125 2.070313 1.34375 4.75 1.28125 6.757813-.15625l18.382813-13.207031 18.871093 18.875-12.9375 18.398437c-1.386719 1.976563-1.457031 4.585938-.179687 6.632813 6.804687 10.734375 11.664062 22.585937 14.351562 35.007812.582032 2.4375 2.570313 4.285156 5.042969 4.683594l22.265625 3.730469v26.445312l-22.609375 3.738281c-2.457031.402344-4.425781 2.253907-4.972656 4.683594-2.628907 12.414063-7.492188 24.253906-14.34375 34.933594-1.335938 2.054688-1.285157 4.714844.121093 6.71875l13.253907 18.746094-18.898438 18.898437-18.398437-12.933593c-1.976563-1.386719-4.585938-1.457032-6.632813-.179688-10.734375 6.804688-22.585937 11.660156-35.011719 14.347656-2.425781.554688-4.273437 2.523438-4.679687 4.980469l-3.726563 22.203125h-26.460937l-3.730469-22.199219c-.40625-2.445312-2.261718-4.394531-4.679687-4.929687-12.417969-2.625-24.253907-7.480469-34.9375-14.328125-2.050781-1.328125-4.699219-1.28125-6.699219.121093l-18.398438 12.925782-18.910156-18.910156 12.933594-18.398438c1.390625-1.976562 1.460938-4.589844.179688-6.632812-6.800782-10.734376-11.660157-22.585938-14.347657-35.007813-.523437-2.421875-2.472656-4.273437-4.914062-4.683594l-22.136719-3.730469v-26.457031l22.136719-3.730469c2.4375-.410156 4.375-2.265624 4.894531-4.679687 2.617188-12.414063 7.46875-24.253906 14.3125-34.9375 1.324219-2.050781 1.273438-4.699219-.128906-6.699219l-12.933594-18.398437 18.910156-18.910157 18.398438 12.9375c1.976562 1.386719 4.585937 1.457032 6.632812.179688 10.734375-6.804688 22.585938-11.664062 35.007813-14.351562 2.429687-.554688 4.277343-2.523438 4.679687-4.976563l3.730469-22.203125zm-280.988281 124.457031c.433594-.871093.65625-1.832031.65625-2.808593 0-37.808594 16.289063-73.890626 45.867188-101.519532 28.800781-26.898437 67.289062-42.347656 105.601562-42.347656 1.125 0 2.25 0 3.375.027344 31.179688.613281 61.242188 11.738281 85.3125 31.566406l-1.179687 6.988281c-11.042969 2.792969-21.632813 7.140625-31.453125 12.917969l-19.324219-13.582031c-2.386719-1.675781-5.632812-1.394531-7.695312.667969l-26.042969 26.039062c-2.0625 2.0625-2.339844 5.308594-.664063 7.695312l13.558594 19.28125c-5.804688 9.816407-10.152344 20.425782-12.898438 31.492188l-23.1875 3.910156c-2.894531.484375-5.019531 2.980469-5.039062 5.914063v36.601562c.019531 2.933594 2.144531 5.429688 5.042969 5.914063l23.167969 3.910156c2.792968 11.042969 7.148437 21.636719 12.929687 31.453125l-13.578125 19.320313c-1.675781 2.386718-1.394531 5.632812.667969 7.695312l26.042969 26.042969c2.0625 2.0625 5.308593 2.34375 7.695312.664062l19.28125-13.558593c9.816406 5.804687 20.425781 10.152343 31.492188 12.902343l3.910156 23.253907c.480468 2.90625 2.96875 5.050781 5.914062 5.101562h36.601563c.855469-.042969 1.691406-.265625 2.457031-.65625l-4.40625 126.289062-196.539062 2.558594-3.101563-38.730468c-1.410156-16.5625-15.734375-29-32.332031-28.070313l-30.445313 1.859375c-5.070312.3125-10.050781-1.472656-13.773437-4.933594-3.71875-3.460937-5.859375-8.296875-5.917969-13.378906l-.800781-69.164062c-.023438-1.5625-.671875-3.054688-1.796875-4.136719-1.128907-1.082031-2.640625-1.671875-4.203125-1.636719h-54.15625zm0 0"/><path d="m275.273438 163.238281c0 37.144531 30.109374 67.253907 67.25 67.253907 37.144531 0 67.253906-30.109376 67.253906-67.253907 0-37.140625-30.109375-67.25-67.253906-67.25-37.125.042969-67.210938 30.125-67.25 67.25zm67.25-55.25c30.515624 0 55.253906 24.734375 55.253906 55.25s-24.738282 55.253907-55.253906 55.253907c-30.515626 0-55.25-24.738282-55.25-55.253907.03125-30.5 24.75-55.214843 55.25-55.25zm0 0"/></svg>