<?xml version="1.0" encoding="iso-8859-1"?>
<!-- Generator: Adobe Illustrator 19.0.0, SVG Export Plug-In . SVG Version: 6.00 Build 0)  -->
<svg version="1.1" id="Layer_1" xmlns="http://www.w3.org/2000/svg" xmlns:xlink="http://www.w3.org/1999/xlink" x="0px" y="0px"
	 viewBox="0 0 488.8 488.8" style="enable-background:new 0 0 488.8 488.8;" xml:space="preserve">
<g>
	<g>
		<path d="M404.4,69.55c0-3.3-2.7-5.9-6-5.9c0,0,0,0-0.1,0c-3.3,0-6,2.8-5.9,6.1l0.3,28.3l-4.4-4.3c-39.7-38.7-91.8-60-147.2-60
			c-0.8,0-1.7,0-2.5,0c-56.3,0.6-108.9,23.2-148.2,63.4c-2.3,2.4-2.3,6.2,0.1,8.5c2.4,2.3,6.2,2.3,8.5-0.1
			c76.6-78.3,202.6-79.8,280.9-3.2l4.4,4.3l-28.3,0.3c-3.3,0-6,2.8-5.9,6.1c0,3.3,2.7,5.9,6,5.9c0,0,0,0,0.1,0l42.8-0.5
			c3.3,0,6-2.8,5.9-6.1L404.4,69.55z"/>
	</g>
</g>
<g>
	<g>
		<path d="M391.7,383.15c-2.5-2.3-6.3-2.2-8.6,0.1c-76.6,78.3-202.6,79.8-280.9,3.2l-4.4-4.3l28.3-0.3c3.3,0,6-2.8,5.9-6.1
			c-0.1-3.3-2.8-6-6.1-5.9l-42.7,0.5c-3.3,0-6,2.8-5.9,6.1l0.5,42.8c0,3.3,2.7,5.9,6,5.9c0,0,0,0,0.1,0c3.3,0,6-2.8,5.9-6.1
			l-0.3-28.3l4.4,4.3c39.6,38.7,91.8,60,147.2,60c0.8,0,1.7,0,2.5,0c56.3-0.6,108.9-23.2,148.2-63.4
			C394.1,389.25,394.1,385.45,391.7,383.15z"/>
	</g>
</g>
<g>
	<g>
		<path d="M181.2,305.35c-20.6-16.9-42.6-28.8-50.8-32.9v-29.7c4.7-4.2,7.4-10.2,7.4-16.6v-36.7c0-21.5-17.5-39-39-39h-7.9
			c-21.5,0-38.9,17.5-38.9,38.9v36.6c0,6.4,2.7,12.4,7.4,16.6v29.7c-8.2,4.1-30.2,16-50.8,32.9c-5.5,4.5-8.6,11.2-8.6,18.3v25.1
			c0,3.3,2.7,6,6,6c3.3,0,6-2.7,6-6v-25.1c0-3.5,1.6-6.8,4.3-9.1c22.2-18.3,46.3-30.4,50.9-32.6c2.6-1.3,4.3-3.9,4.3-6.9v-35.3
			c0-2-1-3.9-2.7-5c-2.9-2-4.7-5.2-4.7-8.7v-36.4c-0.3-14.9,11.8-27,26.7-27h7.9c14.9,0,27,12.1,27,27v36.6c0,3.5-1.8,6.8-4.7,8.7
			c-1.7,1.1-2.7,3-2.7,5v35.3c0,2.9,1.6,5.6,4.3,6.9c4.6,2.3,28.7,14.4,50.9,32.6c2.7,2.2,4.3,5.5,4.3,9.1v25.1c0,3.3,2.7,6,6,6
			s6-2.7,6-6v-25.1C189.8,316.55,186.7,309.85,181.2,305.35z"/>
	</g>
</g>
<g>
	<g>
		<path d="M480,305.25c-20.6-16.9-42.6-28.8-50.8-32.9v-29.7c4.7-4.2,7.4-10.2,7.4-16.6v-36.6c0-21.5-17.5-39-38.9-39h-7.9
			c-21.5,0-38.9,17.5-38.9,38.9v36.6c0,6.4,2.7,12.4,7.4,16.6v29.7c-8.2,4.2-30.2,16-50.8,32.9c-5.5,4.5-8.6,11.2-8.6,18.3v25.1
			c0,3.3,2.7,6,6,6s6-2.7,6-6v-25.1c0-3.5,1.6-6.8,4.3-9.1c22.2-18.2,46.3-30.4,50.9-32.6c2.6-1.3,4.3-3.9,4.3-6.9v-35.3
			c0-2-1-3.9-2.7-5c-2.9-2-4.7-5.2-4.7-8.7v-36.4c0-14.9,12.1-26.9,26.9-26.9h7.9c14.9,0,26.9,12.1,26.9,27v36.6
			c0,3.5-1.8,6.8-4.7,8.7c-1.7,1.1-2.7,3-2.7,5v35.3c0,2.9,1.6,5.6,4.3,6.9c4.6,2.3,28.7,14.4,50.9,32.6c2.7,2.2,4.3,5.5,4.3,9.1
			v25.1c0,3.3,2.7,6,6,6s6-2.7,6-6v-25.1C488.6,316.45,485.5,309.75,480,305.25z"/>
	</g>
</g>
<g>
</g>
<g>
</g>
<g>
</g>
<g>
</g>
<g>
</g>
<g>
</g>
<g>
</g>
<g>
</g>
<g>
</g>
<g>
</g>
<g>
</g>
<g>
</g>
<g>
</g>
<g>
</g>
<g>
</g>
</svg>
